<?xml version="1.0" encoding="utf-8"?>
<!-- Generator: Adobe Illustrator 21.0.0, SVG Export Plug-In . SVG Version: 6.00 Build 0)  -->
<!DOCTYPE svg PUBLIC "-//W3C//DTD SVG 1.0//EN" "http://www.w3.org/TR/2001/REC-SVG-20010904/DTD/svg10.dtd">
<svg version="1.0" id="Ebene_1" xmlns="http://www.w3.org/2000/svg" xmlns:xlink="http://www.w3.org/1999/xlink" x="0px" y="0px"
	 viewBox="0 0 730 250" style="enable-background:new 0 0 730 250;" xml:space="preserve">
<style type="text/css">
	.st0{fill:#D3D3D3;}
	.st1{fill:#FCFCFC;}
	.st2{fill:#E2E2E2;}
	.st3{fill:#11295F;}
	.st4{fill:#004DD6;}
	.st5{fill:#3185FF;}
	.st6{fill:none;stroke:#3185FF;stroke-miterlimit:10;}
</style>
<polygon class="st0" points="604.257,157.446 544.392,197.389 544.392,137.524 604.257,97.482 "/>
<polygon class="st1" points="484.428,157.446 544.392,197.389 544.392,137.524 484.428,97.482 "/>
<polygon class="st2" points="484.428,97.482 544.392,57.638 604.257,97.482 544.392,137.524 "/>
<polygon class="st0" points="724.086,157.446 664.122,197.389 664.122,137.524 724.086,97.482 "/>
<polygon class="st1" points="604.257,157.446 664.122,197.389 664.122,137.524 604.257,97.482 "/>
<polygon class="st2" points="604.257,97.482 664.122,57.638 724.086,97.482 664.122,137.524 "/>
<polygon class="st3" points="484.428,157.446 424.464,197.389 424.464,137.524 484.428,97.482 "/>
<polygon class="st4" points="364.599,157.446 424.464,197.389 424.464,137.524 364.599,97.482 "/>
<polygon class="st5" points="364.599,97.482 424.464,57.638 484.428,97.482 424.464,137.524 "/>
<polygon class="st3" points="364.599,157.446 304.636,197.389 304.636,137.524 364.599,97.482 "/>
<polygon class="st4" points="244.672,157.446 304.636,197.389 304.636,137.524 244.672,97.482 "/>
<polygon class="st5" points="244.672,97.482 304.636,57.638 364.599,97.482 304.636,137.524 "/>
<polygon class="st3" points="244.672,157.446 184.708,197.389 184.708,137.524 244.672,97.482 "/>
<polygon class="st4" points="124.843,157.446 184.708,197.389 184.708,137.524 124.843,97.482 "/>
<polygon class="st5" points="124.843,97.482 184.708,57.638 244.672,97.482 184.708,137.524 "/>
<polygon class="st3" points="124.843,157.446 64.978,197.389 64.978,137.524 124.843,97.482 "/>
<polygon class="st4" points="5.014,157.446 64.978,197.389 64.978,137.524 5.014,97.482 "/>
<polygon class="st5" points="5.014,97.482 64.978,57.638 124.843,97.482 64.978,137.524 "/>
<g>
	<polygon class="st3" points="42.393,234.373 23.654,246.8 23.654,228.061 42.393,215.635 	"/>
	<polygon class="st4" points="5.014,234.373 23.654,246.8 23.654,228.061 5.014,215.635 	"/>
	<polygon class="st5" points="5.014,215.635 23.654,203.208 42.393,215.635 23.654,228.061 	"/>
</g>
<g>
	<path class="st3" d="M56.891,218.692h1.282v8.186c0,2.17,1.381,3.353,3.55,3.353c2.17,0,3.649-1.282,3.649-3.55v-8.186h1.183v8.186
		c0,2.761-1.874,4.537-4.734,4.537c-2.86,0-4.734-1.775-4.734-4.537v-7.989H56.891z"/>
	<path class="st3" d="M72.572,218.692h6.608v1.184h-5.326v4.635h4.635v1.184h-4.635v5.622h-1.183L72.572,218.692L72.572,218.692z"/>
	<path class="st3" d="M84.407,218.692h4.339c2.268,0,3.846,1.479,3.846,3.748c0,2.367-1.578,3.846-3.846,3.846h-3.057v5.03h-1.183
		v-12.624H84.407z M88.648,225.201c1.677,0,2.761-1.085,2.761-2.761s-1.183-2.663-2.761-2.663h-2.959v5.424H88.648L88.648,225.201z"
		/>
	<path class="st3" d="M97.82,224.511h5.03v1.184h-5.03V224.511z"/>
	<path class="st3" d="M109.26,218.692h4.339c1.972,0,3.353,1.184,3.353,3.156c0,1.282-0.592,2.268-1.578,2.761l0,0
		c1.282,0.296,2.17,1.578,2.17,3.057c0,2.268-1.677,3.55-3.748,3.55h-4.537L109.26,218.692L109.26,218.692z M113.501,224.215
		c1.282,0,2.17-0.888,2.17-2.17c0-1.282-0.888-2.17-2.17-2.17h-3.057v4.339H113.501L113.501,224.215z M113.797,230.132
		c1.479,0,2.466-0.986,2.466-2.466s-1.085-2.466-2.466-2.466h-3.255v5.03h3.156v-0.099H113.797z"/>
	<path class="st3" d="M129.281,227.272h-5.03l-1.479,4.044h-1.282l4.635-12.525h1.381l4.635,12.525h-1.282L129.281,227.272z
		 M126.717,220.073c0,0-0.197,1.085-0.493,1.578l-1.677,4.537h4.339l-1.677-4.537C127.013,221.059,126.717,220.073,126.717,220.073
		L126.717,220.073z"/>
	<path class="st3" d="M136.481,218.692h1.282v8.186c0,2.17,1.381,3.353,3.55,3.353s3.649-1.282,3.649-3.55v-8.186h1.184v8.186
		c0,2.761-1.874,4.537-4.734,4.537s-4.734-1.775-4.734-4.537L136.481,218.692L136.481,218.692z"/>
	<path class="st3" d="M151.965,228.949c0,0,1.282,1.381,3.255,1.381c1.381,0,2.466-0.888,2.466-2.17
		c0-3.156-6.213-2.367-6.213-6.213c0-1.775,1.578-3.353,3.945-3.353c2.17,0,3.353,1.184,3.353,1.184l-0.592,1.085
		c0,0-1.184-1.085-2.761-1.085s-2.663,1.085-2.663,2.17c0,2.959,6.213,2.17,6.213,6.213c0,1.775-1.479,3.353-3.846,3.353
		c-2.564,0-4.044-1.578-4.044-1.578L151.965,228.949z"/>
	<path class="st3" d="M167.251,219.875h-4.438v-1.184h10.158v1.184h-4.438v11.342h-1.184L167.251,219.875L167.251,219.875z"/>
	<path class="st3" d="M177.508,218.692h7.002v1.184h-5.819v4.537h4.734v1.184h-4.734v4.635h6.115v1.184h-7.298L177.508,218.692
		L177.508,218.692z"/>
	<path class="st3" d="M190.33,218.692h1.184v12.525h-1.184V218.692z"/>
	<path class="st3" d="M197.924,218.692h1.184l6.411,8.975c0.395,0.592,1.085,1.677,1.085,1.677l0,0c0,0-0.099-1.085-0.099-1.677
		v-8.975h1.184v12.525h-1.184l-6.411-8.975c-0.394-0.592-1.085-1.677-1.085-1.677l0,0c0,0,0.099,1.085,0.099,1.677v8.975h-1.184
		V218.692L197.924,218.692z"/>
	<path class="st3" d="M213.901,218.692h7.002v1.184h-5.819v4.537h4.734v1.184h-4.734v4.635h6.115v1.184h-7.298L213.901,218.692
		L213.901,218.692z"/>
</g>
<g>
	<polygon class="st0" points="494.587,234.275 476.045,246.603 476.045,228.061 494.587,215.733 	"/>
	<polygon class="st1" points="457.405,234.275 476.045,246.603 476.045,228.061 457.405,215.733 	"/>
	<polygon class="st2" points="457.405,215.733 476.045,203.307 494.587,215.733 476.045,228.061 	"/>
</g>
<g>
	<path class="st3" d="M514.509,218.495c3.057,0,4.438,1.578,4.438,1.578l-0.592,0.888c0,0-1.479-1.381-3.846-1.381
		c-2.959,0-5.03,2.367-5.03,5.326c0,3.057,2.17,5.424,5.129,5.424c2.564,0,4.044-1.677,4.044-1.677l0.789,0.888
		c0,0-1.677,1.874-4.734,1.874c-3.748,0-6.411-2.86-6.411-6.608C508.295,221.355,511.057,218.495,514.509,218.495z"/>
	<path class="st3" d="M524.568,218.692h1.282v8.186c0,2.17,1.381,3.353,3.55,3.353c2.17,0,3.649-1.282,3.649-3.55v-8.186h1.183
		v8.186c0,2.761-1.874,4.537-4.734,4.537c-2.86,0-4.734-1.775-4.734-4.537v-7.989H524.568z"/>
	<path class="st3" d="M540.151,228.949c0,0,1.282,1.381,3.255,1.381c1.381,0,2.466-0.888,2.466-2.17
		c0-3.156-6.213-2.367-6.213-6.213c0-1.775,1.578-3.353,3.945-3.353c2.17,0,3.353,1.184,3.353,1.184l-0.592,1.085
		c0,0-1.183-1.085-2.761-1.085c-1.578,0-2.663,1.085-2.663,2.17c0,2.959,6.213,2.17,6.213,6.213c0,1.775-1.479,3.353-3.846,3.353
		c-2.564,0-4.044-1.578-4.044-1.578L540.151,228.949z"/>
	<path class="st3" d="M555.339,219.875h-4.438v-1.184h10.06v1.184h-4.438v11.342h-1.183V219.875z"/>
	<path class="st3" d="M571.021,218.495c3.55,0,6.411,2.761,6.411,6.411c0,3.748-2.761,6.608-6.411,6.608
		c-3.55,0-6.411-2.86-6.411-6.608C564.61,221.355,567.47,218.495,571.021,218.495z M571.021,230.231
		c2.761,0,5.128-2.367,5.128-5.424c0-3.057-2.367-5.326-5.128-5.326c-2.86,0-5.128,2.268-5.128,5.326
		C565.892,228.061,568.16,230.231,571.021,230.231z"/>
	<path class="st3" d="M583.447,218.692h1.282l3.255,7.298c0.296,0.592,0.592,1.479,0.592,1.479l0,0c0,0,0.296-0.888,0.592-1.479
		l3.255-7.298h1.282l1.085,12.525h-1.184l-0.789-8.778c-0.099-0.592,0-1.775,0-1.775l0,0c0,0-0.395,1.184-0.592,1.775l-2.959,6.509
		h-1.184l-2.959-6.509c-0.296-0.592-0.592-1.775-0.592-1.775l0,0c0,0,0,1.184,0,1.775l-0.789,8.778h-1.282L583.447,218.692z"/>
	<path class="st3" d="M600.707,224.511h5.03v1.184h-5.03V224.511z"/>
	<path class="st3" d="M612.048,218.692h4.34c1.972,0,3.353,1.184,3.353,3.156c0,1.282-0.592,2.268-1.578,2.761l0,0
		c1.282,0.296,2.17,1.578,2.17,3.057c0,2.268-1.677,3.55-3.748,3.55h-4.34v-12.525H612.048z M616.289,224.215
		c1.282,0,2.17-0.888,2.17-2.17c0-1.282-0.888-2.17-2.17-2.17h-2.959v4.339H616.289L616.289,224.215z M616.487,230.132
		c1.479,0,2.466-0.986,2.466-2.466s-1.085-2.466-2.466-2.466h-3.156v5.03h3.156V230.132z"/>
	<path class="st3" d="M631.971,227.272h-5.03l-1.479,4.044h-1.282l4.635-12.525h1.381l4.635,12.525h-1.282L631.971,227.272z
		 M629.406,220.073c0,0-0.197,1.085-0.493,1.578l-1.677,4.537h4.339l-1.677-4.537C629.801,221.059,629.604,220.073,629.406,220.073
		L629.406,220.073z"/>
	<path class="st3" d="M639.17,218.692h1.282v8.186c0,2.17,1.381,3.353,3.55,3.353c2.17,0,3.649-1.282,3.649-3.55v-8.186h1.184v8.186
		c0,2.761-1.874,4.537-4.734,4.537c-2.86,0-4.734-1.775-4.734-4.537v-7.989H639.17z"/>
	<path class="st3" d="M654.753,228.949c0,0,1.282,1.381,3.255,1.381c1.381,0,2.466-0.888,2.466-2.17
		c0-3.156-6.213-2.367-6.213-6.213c0-1.775,1.578-3.353,3.945-3.353c2.17,0,3.353,1.184,3.353,1.184l-0.592,1.085
		c0,0-1.183-1.085-2.761-1.085c-1.578,0-2.663,1.085-2.663,2.17c0,2.959,6.213,2.17,6.213,6.213c0,1.775-1.479,3.353-3.846,3.353
		c-2.564,0-4.044-1.578-4.044-1.578L654.753,228.949z"/>
	<path class="st3" d="M669.941,219.875h-4.438v-1.184h10.158v1.184h-4.438v11.342h-1.184L669.941,219.875L669.941,219.875z"/>
	<path class="st3" d="M680.395,218.692h7.002v1.184h-5.819v4.537h4.734v1.184h-4.734v4.635h6.115v1.184h-7.298V218.692
		L680.395,218.692z"/>
	<path class="st3" d="M693.118,218.692h1.183v12.525h-1.183V218.692z"/>
	<path class="st3" d="M700.613,218.692h1.184l6.411,8.975c0.395,0.592,1.085,1.677,1.085,1.677l0,0c0,0-0.099-1.085-0.099-1.677
		v-8.975h1.183v12.525h-1.183l-6.411-8.975c-0.394-0.592-1.085-1.677-1.085-1.677l0,0c0,0,0.099,1.085,0.099,1.677v8.975h-1.184
		V218.692L700.613,218.692z"/>
	<path class="st3" d="M716.788,218.692h7.002v1.184h-5.819v4.537h4.734v1.184h-4.734v4.635h6.115v1.184h-7.298L716.788,218.692
		L716.788,218.692z"/>
</g>
<g>
	<path class="st3" d="M11.425,5.761c2.761,0,4.241,1.381,4.241,1.381L15.074,8.03c0,0-1.381-1.183-3.55-1.183
		c-2.86,0-4.734,2.268-4.734,5.03c0,2.959,1.972,5.128,4.635,5.128c2.367,0,3.748-1.775,3.748-1.775v-1.972H13.2v-1.085h3.057v5.622
		h-1.183v-0.888c0-0.197,0-0.493,0-0.493l0,0c0,0-1.381,1.578-3.945,1.578c-3.255,0-5.819-2.663-5.819-6.115
		C5.409,8.326,7.973,5.761,11.425,5.761z"/>
	<path class="st3" d="M19.808,5.86h6.706v1.085h-5.523v4.339h4.537v1.085h-4.537v4.339h5.819v1.085h-7.002
		C19.808,17.596,19.808,5.86,19.808,5.86z"/>
	<path class="st3" d="M30.163,15.525c0,0,1.183,1.282,3.057,1.282c1.282,0,2.466-0.888,2.466-2.17c0-3.057-5.917-2.268-5.917-5.917
		c0-1.677,1.479-3.156,3.748-3.156c2.17,0,3.156,1.183,3.156,1.183l-0.493,1.085c0,0-1.085-1.085-2.663-1.085
		c-1.479,0-2.466,1.085-2.466,2.17c0,2.761,5.917,1.972,5.917,5.917c0,1.775-1.381,3.156-3.649,3.156
		c-2.466,0-3.748-1.479-3.748-1.479L30.163,15.525z"/>
	<path class="st3" d="M40.322,5.86h4.044c2.17,0,3.748,1.381,3.748,3.649s-1.479,3.748-3.748,3.748h-2.959v4.635h-1.183L40.322,5.86
		L40.322,5.86z M44.267,11.975c1.578,0,2.663-0.986,2.663-2.564s-1.085-2.564-2.663-2.564h-2.761v5.128L44.267,11.975L44.267,11.975
		z"/>
	<path class="st3" d="M56.693,14.046h-4.734l-1.381,3.748h-1.183l4.339-11.835h1.282l4.339,11.835h-1.183L56.693,14.046z
		 M54.228,7.142c0,0-0.197,0.986-0.493,1.479l-1.578,4.339h4.142l-1.578-4.339C54.425,8.03,54.228,7.142,54.228,7.142L54.228,7.142z
		"/>
	<path class="st3" d="M62.118,5.86h3.55c1.183,0,1.775,0.099,2.268,0.296c1.183,0.493,1.775,1.578,1.775,3.057
		c0,1.578-0.888,2.86-2.268,3.156l0,0c0,0,0.099,0.197,0.296,0.493l2.564,4.734h-1.381l-2.761-5.03h-3.057v5.03H61.92V5.86H62.118z
		 M65.964,11.679c1.479,0,2.367-0.986,2.367-2.466c0-0.986-0.394-1.677-1.183-2.17c-0.296-0.197-0.888-0.296-1.677-0.296h-2.466
		v4.833h2.959V11.679z"/>
	<path class="st3" d="M76.221,6.945h-4.339V5.86h9.764v1.085h-4.241v10.849h-1.183C76.221,17.695,76.221,6.945,76.221,6.945z"/>
	<path class="st3" d="M84.308,5.86h6.706v1.085h-5.523v4.339h4.537v1.085h-4.537v4.339h5.819v1.085h-7.002L84.308,5.86L84.308,5.86z
		"/>
	<path class="st3" d="M100.088,5.86h6.706v1.085h-5.523v4.339h4.537v1.085h-4.537v4.339h5.819v1.085h-7.002L100.088,5.86
		L100.088,5.86z"/>
	<path class="st3" d="M110.542,5.86h1.183l6.016,8.482c0.394,0.493,0.986,1.578,0.986,1.578l0,0c0,0-0.099-0.986-0.099-1.578V5.86
		h1.183v11.835h-1.183l-6.016-8.482c-0.394-0.493-0.986-1.578-0.986-1.578l0,0c0,0,0.099,0.986,0.099,1.578v8.482h-1.183V5.86z"/>
	<path class="st3" d="M126.815,6.945h-4.339V5.86h9.764v1.085h-4.241v10.849h-1.183V6.945L126.815,6.945z"/>
	<path class="st3" d="M141.017,7.635c0,0-0.197,1.085-0.394,1.775l-2.268,8.383h-1.479l-3.057-11.835h1.183l2.367,9.271
		c0.197,0.592,0.197,1.282,0.197,1.282l0,0c0,0,0.099-0.592,0.197-1.282l2.466-9.271h1.184l2.466,9.271
		c0.197,0.592,0.197,1.282,0.197,1.282l0,0c0,0,0.099-0.592,0.197-1.282l2.466-9.271h1.184l-3.156,11.835h-1.479l-1.874-8.383
		C141.215,8.622,141.116,7.635,141.017,7.635L141.017,7.635z"/>
	<path class="st3" d="M151.472,5.86h1.184v11.835h-1.184V5.86z"/>
	<path class="st3" d="M162.024,5.761c2.86,0,4.339,1.479,4.339,1.479l-0.592,0.888c0,0-1.381-1.381-3.649-1.381
		c-2.761,0-4.734,2.17-4.734,5.03s1.972,5.227,4.734,5.227c2.466,0,3.846-1.578,3.846-1.578l0.592,0.888
		c0,0-1.578,1.775-4.537,1.775c-3.55,0-5.917-2.761-5.917-6.213C156.107,8.128,158.77,5.761,162.024,5.761z"/>
	<path class="st3" d="M170.013,5.86h1.184v5.227h1.972l3.156-5.227h1.381l-3.55,5.622l0,0l3.748,6.213h-1.282l-3.353-5.622h-1.973
		v5.622h-1.184L170.013,5.86L170.013,5.86z"/>
	<path class="st3" d="M181.059,5.86h1.184v10.849h5.523v1.085h-6.706L181.059,5.86L181.059,5.86z"/>
	<path class="st3" d="M190.132,5.86h1.184v7.693c0,2.17,1.381,3.255,3.353,3.255c2.17,0,3.353-1.183,3.353-3.353V5.86h1.184v7.693
		c0,2.663-1.775,4.339-4.537,4.339c-2.761,0-4.537-1.677-4.537-4.339V5.86L190.132,5.86z"/>
	<path class="st3" d="M203.447,5.86h1.184l6.016,8.482c0.395,0.493,0.986,1.578,0.986,1.578l0,0c0,0-0.099-0.986-0.099-1.578V5.86
		h1.184v11.835h-1.184l-6.016-8.482c-0.394-0.493-0.986-1.578-0.986-1.578l0,0c0,0,0.099,0.986,0.099,1.578v8.482h-1.184V5.86
		L203.447,5.86z"/>
	<path class="st3" d="M222.185,5.761c2.761,0,4.241,1.381,4.241,1.381l-0.592,0.888c0,0-1.381-1.183-3.55-1.183
		c-2.86,0-4.734,2.268-4.734,5.03c0,2.959,1.972,5.128,4.635,5.128c2.367,0,3.748-1.775,3.748-1.775v-1.972h-1.973v-1.085h3.057
		v5.622h-1.184v-0.888c0-0.197,0-0.493,0-0.493l0,0c0,0-1.381,1.578-3.945,1.578c-3.255,0-5.819-2.663-5.819-6.115
		C216.169,8.326,218.734,5.761,222.185,5.761z"/>
	<path class="st3" d="M230.47,15.525c0,0,1.184,1.282,3.057,1.282c1.282,0,2.466-0.888,2.466-2.17c0-3.057-5.917-2.268-5.917-5.917
		c0-1.677,1.479-3.156,3.748-3.156c2.17,0,3.156,1.183,3.156,1.183l-0.493,0.986c0,0-1.085-1.085-2.663-1.085
		c-1.479,0-2.466,1.085-2.466,2.17c0,2.761,5.917,1.972,5.917,5.917c0,1.775-1.381,3.156-3.649,3.156
		c-2.466,0-3.748-1.479-3.748-1.479L230.47,15.525z"/>
	<path class="st3" d="M239.642,17.005l6.115-8.876c0.493-0.592,0.888-1.183,0.888-1.183l0,0c0,0-0.296,0-0.888,0h-5.72V5.86h8.087
		v0.789l-6.115,8.876c-0.493,0.592-0.888,1.183-0.888,1.183l0,0c0,0,0.296,0,0.888,0h6.115v1.085h-8.482L239.642,17.005
		L239.642,17.005z"/>
	<path class="st3" d="M251.477,5.86h6.706v1.085h-5.523v4.339h4.537v1.085h-4.537v4.339h5.819v1.085h-7.002L251.477,5.86
		L251.477,5.86z"/>
	<path class="st3" d="M262.03,5.86h1.184v11.835h-1.184V5.86z"/>
	<path class="st3" d="M270.018,6.945h-4.339V5.86h9.764v1.085h-4.241v10.849h-1.184V6.945L270.018,6.945z"/>
</g>
<g>
	<path class="st3" d="M485.71,17.005l6.115-8.876c0.493-0.592,0.888-1.183,0.888-1.183l0,0c0,0-0.296,0-0.888,0h-5.819V5.86h8.186
		v0.789l-6.115,8.876c-0.493,0.592-0.888,1.183-0.888,1.183l0,0c0,0,0.296,0,0.888,0h6.115v1.085h-8.482V17.005L485.71,17.005z"/>
	<path class="st3" d="M497.545,5.86h6.706v1.085h-5.523v4.339h4.537v1.085h-4.537v4.339h5.819v1.085h-7.002L497.545,5.86
		L497.545,5.86z"/>
	<path class="st3" d="M508.098,5.86h1.184v11.835h-1.184V5.86z"/>
	<path class="st3" d="M516.087,6.945h-4.34V5.86h9.764v1.085h-4.241v10.849h-1.183V6.945L516.087,6.945z"/>
	<path class="st3" d="M529.598,5.86h6.213v1.085h-5.129v4.438h4.34v1.085h-4.34v5.326H529.5V5.86H529.598z"/>
	<path class="st3" d="M539.066,5.86h1.184v7.693c0,2.17,1.381,3.255,3.353,3.255c2.17,0,3.353-1.183,3.353-3.353V5.86h1.184v7.693
		c0,2.663-1.775,4.339-4.537,4.339s-4.537-1.677-4.537-4.339L539.066,5.86L539.066,5.86z M541.828,3h1.085v1.479h-1.085V3z
		 M544.392,3h1.085v1.479h-1.085V3z"/>
	<path class="st3" d="M552.183,5.86h3.55c1.183,0,1.775,0.099,2.268,0.296c1.184,0.493,1.775,1.578,1.775,3.057
		c0,1.578-0.888,2.86-2.268,3.156l0,0c0,0,0.099,0.197,0.296,0.493l2.564,4.734h-1.381l-2.761-5.03h-3.057v5.03h-1.184V5.86H552.183
		z M556.227,11.679c1.479,0,2.367-0.986,2.367-2.466c0-0.986-0.395-1.677-1.183-2.17c-0.296-0.197-0.888-0.296-1.677-0.296h-2.466
		v4.833h2.959V11.679z"/>
	<path class="st3" d="M569.048,5.86h1.184v5.227h1.972l3.156-5.227h1.381l-3.55,5.622l0,0l3.748,6.213h-1.381l-3.353-5.622h-1.972
		v5.622h-1.184V5.86L569.048,5.86z"/>
	<path class="st3" d="M579.995,5.86h6.706v1.085h-5.523v4.339h4.537v1.085h-4.537v4.339h5.819v1.085h-7.002V5.86L579.995,5.86z"/>
	<path class="st3" d="M590.647,5.86h3.55c1.184,0,1.775,0.099,2.268,0.296c1.183,0.493,1.775,1.578,1.775,3.057
		c0,1.578-0.888,2.86-2.268,3.156l0,0c0,0,0.099,0.197,0.296,0.493l2.564,4.734h-1.381l-2.761-5.03h-2.959v5.03h-1.183V5.86H590.647
		z M594.493,11.679c1.479,0,2.367-0.986,2.367-2.466c0-0.986-0.395-1.677-1.184-2.17c-0.296-0.197-0.888-0.296-1.677-0.296h-2.466
		v4.833h2.959V11.679z"/>
	<path class="st3" d="M602.087,5.86h1.184l6.016,8.482c0.395,0.493,0.986,1.578,0.986,1.578l0,0c0,0-0.099-0.986-0.099-1.578V5.86
		h1.184v11.835h-1.184l-6.016-8.482c-0.395-0.493-0.986-1.578-0.986-1.578l0,0c0,0,0.099,0.986,0.099,1.578v8.482h-1.184V5.86
		L602.087,5.86z"/>
	<path class="st3" d="M615.698,5.86h4.044c2.17,0,3.748,1.381,3.748,3.649s-1.479,3.748-3.748,3.748h-2.959v4.635h-1.184
		L615.698,5.86L615.698,5.86z M619.445,11.975c1.578,0,2.663-0.986,2.663-2.564s-1.085-2.564-2.663-2.564h-2.761v5.128
		L619.445,11.975L619.445,11.975z"/>
	<path class="st3" d="M626.448,5.86h3.55c1.184,0,1.775,0.099,2.268,0.296c1.183,0.493,1.775,1.578,1.775,3.057
		c0,1.578-0.888,2.86-2.268,3.156l0,0c0,0,0.099,0.197,0.296,0.493l2.564,4.734h-1.381l-2.761-5.03h-2.959v5.03h-1.183L626.448,5.86
		L626.448,5.86z M630.491,11.679c1.479,0,2.367-0.986,2.367-2.466c0-0.986-0.395-1.677-1.184-2.17
		c-0.296-0.197-0.888-0.296-1.677-0.296h-2.466v4.833h2.959V11.679z"/>
	<path class="st3" d="M643.214,5.761c3.353,0,6.016,2.663,6.016,6.016c0,3.55-2.761,6.213-6.016,6.213
		c-3.353,0-6.016-2.761-6.016-6.213C637.099,8.326,639.861,5.761,643.214,5.761z M643.214,16.906c2.663,0,4.833-2.268,4.833-5.128
		s-2.17-5.03-4.833-5.03c-2.761,0-4.833,2.17-4.833,5.03C638.381,14.638,640.452,16.906,643.214,16.906z"/>
	<path class="st3" d="M652.78,5.86h3.846c3.649,0,5.917,2.17,5.917,5.917s-2.466,5.917-5.917,5.917h-3.846V5.86z M656.43,16.709
		c2.959,0,4.833-1.775,4.833-4.833c0-3.156-1.973-4.833-4.833-4.833h-2.564v9.862L656.43,16.709L656.43,16.709z"/>
	<path class="st3" d="M665.996,5.86h1.183v7.693c0,2.17,1.381,3.255,3.353,3.255c2.17,0,3.353-1.183,3.353-3.353V5.86h1.184v7.693
		c0,2.663-1.775,4.339-4.537,4.339s-4.537-1.677-4.537-4.339L665.996,5.86L665.996,5.86z"/>
	<path class="st3" d="M679.113,5.86h1.183v5.227h1.973l3.156-5.227h1.381l-3.55,5.622l0,0l3.748,6.213h-1.381l-3.353-5.622h-1.973
		v5.622h-1.183V5.86L679.113,5.86z"/>
	<path class="st3" d="M692.822,6.945h-4.339V5.86h9.764v1.085h-4.241v10.849h-1.184V6.945L692.822,6.945z"/>
</g>
<polyline class="st6" points="5.803,38.308 5.803,29.727 483.541,29.727 483.541,38.308 "/>
<polyline class="st6" points="483.541,38.308 483.541,29.727 723.494,29.727 723.494,38.308 "/>
</svg>
