<svg version="1" id="Ebene_1" xmlns="http://www.w3.org/2000/svg" viewBox="0 0 730 250"><style>.st0{fill:#d3d3d3}.st1{fill:#fcfcfc}.st2{fill:#e2e2e2}.st3{fill:#11295f}.st4{fill:#004dd6}.st5{fill:#3185ff}.st6{fill:none;stroke:#3185ff;stroke-miterlimit:10}</style><path class="st0" d="M604.257 157.446l-59.865 39.943v-59.865l59.865-40.042z"/><path class="st1" d="M484.428 157.446l59.964 39.943v-59.865l-59.964-40.042z"/><path class="st2" d="M484.428 97.482l59.964-39.844 59.865 39.844-59.865 40.042z"/><path class="st0" d="M724.086 157.446l-59.964 39.943v-59.865l59.964-40.042z"/><path class="st1" d="M604.257 157.446l59.865 39.943v-59.865l-59.865-40.042z"/><path class="st2" d="M604.257 97.482l59.865-39.844 59.964 39.844-59.964 40.042z"/><path class="st3" d="M484.428 157.446l-59.964 39.943v-59.865l59.964-40.042z"/><path class="st4" d="M364.599 157.446l59.865 39.943v-59.865l-59.865-40.042z"/><path class="st5" d="M364.599 97.482l59.865-39.844 59.964 39.844-59.964 40.042z"/><path class="st3" d="M364.599 157.446l-59.963 39.943v-59.865l59.963-40.042z"/><path class="st4" d="M244.672 157.446l59.964 39.943v-59.865l-59.964-40.042z"/><path class="st5" d="M244.672 97.482l59.964-39.844 59.963 39.844-59.963 40.042z"/><path class="st3" d="M244.672 157.446l-59.964 39.943v-59.865l59.964-40.042z"/><path class="st4" d="M124.843 157.446l59.865 39.943v-59.865l-59.865-40.042z"/><path class="st5" d="M124.843 97.482l59.865-39.844 59.964 39.844-59.964 40.042z"/><path class="st3" d="M124.843 157.446l-59.865 39.943v-59.865l59.865-40.042z"/><path class="st4" d="M5.014 157.446l59.964 39.943v-59.865L5.014 97.482z"/><path class="st5" d="M5.014 97.482l59.964-39.844 59.865 39.844-59.865 40.042z"/><path class="st3" d="M42.393 234.373L23.654 246.8v-18.739l18.739-12.426z"/><path class="st4" d="M5.014 234.373l18.64 12.427v-18.739l-18.64-12.426z"/><path class="st5" d="M5.014 215.635l18.64-12.427 18.739 12.427-18.739 12.426z"/><path class="st3" d="M56.891 218.692h1.282v8.186c0 2.17 1.381 3.353 3.55 3.353 2.17 0 3.649-1.282 3.649-3.55v-8.186h1.183v8.186c0 2.761-1.874 4.537-4.734 4.537s-4.734-1.775-4.734-4.537v-7.989h-.196zm15.681 0h6.608v1.184h-5.326v4.635h4.635v1.184h-4.635v5.622h-1.183l-.099-12.625zm11.835 0h4.339c2.268 0 3.846 1.479 3.846 3.748 0 2.367-1.578 3.846-3.846 3.846h-3.057v5.03h-1.183v-12.624h-.099zm4.241 6.509c1.677 0 2.761-1.085 2.761-2.761s-1.183-2.663-2.761-2.663h-2.959v5.424h2.959zm9.172-.69h5.03v1.184h-5.03v-1.184zm11.44-5.819h4.339c1.972 0 3.353 1.184 3.353 3.156 0 1.282-.592 2.268-1.578 2.761 1.282.296 2.17 1.578 2.17 3.057 0 2.268-1.677 3.55-3.748 3.55h-4.537l.001-12.524zm4.241 5.523c1.282 0 2.17-.888 2.17-2.17s-.888-2.17-2.17-2.17h-3.057v4.339h3.057v.001zm.296 5.917c1.479 0 2.466-.986 2.466-2.466s-1.085-2.466-2.466-2.466h-3.255v5.03h3.156v-.099h.099zm15.484-2.86h-5.03l-1.479 4.044h-1.282l4.635-12.525h1.381l4.635 12.525h-1.282l-1.578-4.044zm-2.564-7.199s-.197 1.085-.493 1.578l-1.677 4.537h4.339l-1.677-4.537c-.196-.592-.492-1.578-.492-1.578zm9.764-1.381h1.282v8.186c0 2.17 1.381 3.353 3.55 3.353s3.649-1.282 3.649-3.55v-8.186h1.184v8.186c0 2.761-1.874 4.537-4.734 4.537s-4.734-1.775-4.734-4.537l-.197-7.989zm15.484 10.257s1.282 1.381 3.255 1.381c1.381 0 2.466-.888 2.466-2.17 0-3.156-6.213-2.367-6.213-6.213 0-1.775 1.578-3.353 3.945-3.353 2.17 0 3.353 1.184 3.353 1.184l-.592 1.085s-1.184-1.085-2.761-1.085-2.663 1.085-2.663 2.17c0 2.959 6.213 2.17 6.213 6.213 0 1.775-1.479 3.353-3.846 3.353-2.564 0-4.044-1.578-4.044-1.578l.887-.987zm15.286-9.074h-4.438v-1.184h10.158v1.184h-4.438v11.342h-1.184l-.098-11.342zm10.257-1.183h7.002v1.184h-5.819v4.537h4.734v1.184h-4.734v4.635h6.115v1.184h-7.298v-12.724zm12.822 0h1.184v12.525h-1.184v-12.525zm7.594 0h1.184l6.411 8.975c.395.592 1.085 1.677 1.085 1.677s-.099-1.085-.099-1.677v-8.975h1.184v12.525h-1.184l-6.411-8.975c-.394-.592-1.085-1.677-1.085-1.677s.099 1.085.099 1.677v8.975h-1.184v-12.525zm15.977 0h7.002v1.184h-5.819v4.537h4.734v1.184h-4.734v4.635h6.115v1.184h-7.298v-12.724z"/><path class="st0" d="M494.587 234.275l-18.542 12.328v-18.542l18.542-12.328z"/><path class="st1" d="M457.405 234.275l18.64 12.328v-18.542l-18.64-12.328z"/><path class="st2" d="M457.405 215.733l18.64-12.426 18.542 12.426-18.542 12.328z"/><path class="st3" d="M514.509 218.495c3.057 0 4.438 1.578 4.438 1.578l-.592.888s-1.479-1.381-3.846-1.381c-2.959 0-5.03 2.367-5.03 5.326 0 3.057 2.17 5.424 5.129 5.424 2.564 0 4.044-1.677 4.044-1.677l.789.888s-1.677 1.874-4.734 1.874c-3.748 0-6.411-2.86-6.411-6.608-.001-3.452 2.761-6.312 6.213-6.312zm10.059.197h1.282v8.186c0 2.17 1.381 3.353 3.55 3.353 2.17 0 3.649-1.282 3.649-3.55v-8.186h1.183v8.186c0 2.761-1.874 4.537-4.734 4.537s-4.734-1.775-4.734-4.537v-7.989h-.196zm15.583 10.257s1.282 1.381 3.255 1.381c1.381 0 2.466-.888 2.466-2.17 0-3.156-6.213-2.367-6.213-6.213 0-1.775 1.578-3.353 3.945-3.353 2.17 0 3.353 1.184 3.353 1.184l-.592 1.085s-1.183-1.085-2.761-1.085-2.663 1.085-2.663 2.17c0 2.959 6.213 2.17 6.213 6.213 0 1.775-1.479 3.353-3.846 3.353-2.564 0-4.044-1.578-4.044-1.578l.887-.987zm15.188-9.074h-4.438v-1.184h10.06v1.184h-4.438v11.342h-1.183v-11.342zm15.682-1.38c3.55 0 6.411 2.761 6.411 6.411 0 3.748-2.761 6.608-6.411 6.608-3.55 0-6.411-2.86-6.411-6.608a6.398 6.398 0 0 1 6.411-6.411zm0 11.736c2.761 0 5.128-2.367 5.128-5.424 0-3.057-2.367-5.326-5.128-5.326-2.86 0-5.128 2.268-5.128 5.326-.001 3.254 2.267 5.424 5.128 5.424zm12.426-11.539h1.282l3.255 7.298c.296.592.592 1.479.592 1.479s.296-.888.592-1.479l3.255-7.298h1.282l1.085 12.525h-1.184l-.789-8.778c-.099-.592 0-1.775 0-1.775l-.592 1.775-2.959 6.509h-1.184l-2.959-6.509c-.296-.592-.592-1.775-.592-1.775v1.775l-.789 8.778h-1.282l.987-12.525zm17.26 5.819h5.03v1.184h-5.03v-1.184zm11.341-5.819h4.34c1.972 0 3.353 1.184 3.353 3.156 0 1.282-.592 2.268-1.578 2.761 1.282.296 2.17 1.578 2.17 3.057 0 2.268-1.677 3.55-3.748 3.55h-4.34v-12.525h-.197zm4.241 5.523c1.282 0 2.17-.888 2.17-2.17s-.888-2.17-2.17-2.17h-2.959v4.339h2.959v.001zm.198 5.917c1.479 0 2.466-.986 2.466-2.466s-1.085-2.466-2.466-2.466h-3.156v5.03h3.156v-.098zm15.484-2.86h-5.03l-1.479 4.044h-1.282l4.635-12.525h1.381l4.635 12.525h-1.282l-1.578-4.044zm-2.565-7.199s-.197 1.085-.493 1.578l-1.677 4.537h4.339l-1.677-4.537c-.097-.592-.294-1.578-.492-1.578zm9.764-1.381h1.282v8.186c0 2.17 1.381 3.353 3.55 3.353 2.17 0 3.649-1.282 3.649-3.55v-8.186h1.184v8.186c0 2.761-1.874 4.537-4.734 4.537s-4.734-1.775-4.734-4.537v-7.989h-.197zm15.583 10.257s1.282 1.381 3.255 1.381c1.381 0 2.466-.888 2.466-2.17 0-3.156-6.213-2.367-6.213-6.213 0-1.775 1.578-3.353 3.945-3.353 2.17 0 3.353 1.184 3.353 1.184l-.592 1.085s-1.183-1.085-2.761-1.085-2.663 1.085-2.663 2.17c0 2.959 6.213 2.17 6.213 6.213 0 1.775-1.479 3.353-3.846 3.353-2.564 0-4.044-1.578-4.044-1.578l.887-.987zm15.188-9.074h-4.438v-1.184h10.158v1.184h-4.438v11.342h-1.184l-.098-11.342zm10.454-1.183h7.002v1.184h-5.819v4.537h4.734v1.184h-4.734v4.635h6.115v1.184h-7.298v-12.724zm12.723 0h1.183v12.525h-1.183v-12.525zm7.495 0h1.184l6.411 8.975c.395.592 1.085 1.677 1.085 1.677s-.099-1.085-.099-1.677v-8.975h1.183v12.525h-1.183l-6.411-8.975c-.394-.592-1.085-1.677-1.085-1.677s.099 1.085.099 1.677v8.975h-1.184v-12.525zm16.175 0h7.002v1.184h-5.819v4.537h4.734v1.184h-4.734v4.635h6.115v1.184h-7.298v-12.724zM11.425 5.761c2.761 0 4.241 1.381 4.241 1.381l-.592.888s-1.381-1.183-3.55-1.183c-2.86 0-4.734 2.268-4.734 5.03 0 2.959 1.972 5.128 4.635 5.128 2.367 0 3.748-1.775 3.748-1.775v-1.972H13.2v-1.085h3.057v5.622h-1.183v-1.381s-1.381 1.578-3.945 1.578c-3.255 0-5.819-2.663-5.819-6.115.099-3.551 2.663-6.116 6.115-6.116zm8.383.099h6.706v1.085h-5.523v4.339h4.537v1.085h-4.537v4.339h5.819v1.085h-7.002V5.86zm10.355 9.665s1.183 1.282 3.057 1.282c1.282 0 2.466-.888 2.466-2.17 0-3.057-5.917-2.268-5.917-5.917 0-1.677 1.479-3.156 3.748-3.156 2.17 0 3.156 1.183 3.156 1.183l-.493 1.085s-1.085-1.085-2.663-1.085c-1.479 0-2.466 1.085-2.466 2.17 0 2.761 5.917 1.972 5.917 5.917 0 1.775-1.381 3.156-3.649 3.156-2.466 0-3.748-1.479-3.748-1.479l.592-.986zM40.322 5.86h4.044c2.17 0 3.748 1.381 3.748 3.649s-1.479 3.748-3.748 3.748h-2.959v4.635h-1.183l.098-12.032zm3.945 6.115c1.578 0 2.663-.986 2.663-2.564s-1.085-2.564-2.663-2.564h-2.761v5.128h2.761zm12.426 2.071h-4.734l-1.381 3.748h-1.183l4.339-11.835h1.282l4.339 11.835h-1.183l-1.479-3.748zm-2.465-6.904s-.197.986-.493 1.479l-1.578 4.339h4.142l-1.578-4.339c-.296-.591-.493-1.479-.493-1.479zm7.89-1.282h3.55c1.183 0 1.775.099 2.268.296 1.183.493 1.775 1.578 1.775 3.057 0 1.578-.888 2.86-2.268 3.156 0 0 .099.197.296.493l2.564 4.734h-1.381l-2.761-5.03h-3.057v5.03H61.92V5.86h.198zm3.846 5.819c1.479 0 2.367-.986 2.367-2.466 0-.986-.394-1.677-1.183-2.17-.296-.197-.888-.296-1.677-.296h-2.466v4.833h2.959v.099zm10.257-4.734h-4.339V5.86h9.764v1.085h-4.241v10.849h-1.183l-.001-10.849zm8.087-1.085h6.706v1.085h-5.523v4.339h4.537v1.085h-4.537v4.339h5.819v1.085h-7.002V5.86zm15.78 0h6.706v1.085h-5.523v4.339h4.537v1.085h-4.537v4.339h5.819v1.085h-7.002V5.86zm10.454 0h1.183l6.016 8.482c.394.493.986 1.578.986 1.578s-.099-.986-.099-1.578V5.86h1.183v11.835h-1.183l-6.016-8.482c-.394-.493-.986-1.578-.986-1.578s.099.986.099 1.578v8.482h-1.183V5.86zm16.273 1.085h-4.339V5.86h9.764v1.085h-4.241v10.849h-1.183V6.945h-.001zm14.202.69s-.197 1.085-.394 1.775l-2.268 8.383h-1.479l-3.057-11.835h1.183l2.367 9.271c.197.592.197 1.282.197 1.282s.099-.592.197-1.282l2.466-9.271h1.184l2.466 9.271c.197.592.197 1.282.197 1.282s.099-.592.197-1.282l2.466-9.271h1.184l-3.156 11.835h-1.479l-1.874-8.383c-.199-.788-.298-1.775-.397-1.775zm10.455-1.775h1.184v11.835h-1.184V5.86zm10.552-.099c2.86 0 4.339 1.479 4.339 1.479l-.592.888s-1.381-1.381-3.649-1.381c-2.761 0-4.734 2.17-4.734 5.03s1.972 5.227 4.734 5.227c2.466 0 3.846-1.578 3.846-1.578l.592.888s-1.578 1.775-4.537 1.775c-3.55 0-5.917-2.761-5.917-6.213.001-3.748 2.664-6.115 5.918-6.115zm7.989.099h1.184v5.227h1.972l3.156-5.227h1.381l-3.55 5.622 3.748 6.213h-1.282l-3.353-5.622h-1.973v5.622h-1.184l-.099-11.835zm11.046 0h1.184v10.849h5.523v1.085h-6.706l-.001-11.934zm9.073 0h1.184v7.693c0 2.17 1.381 3.255 3.353 3.255 2.17 0 3.353-1.183 3.353-3.353V5.86h1.184v7.693c0 2.663-1.775 4.339-4.537 4.339-2.761 0-4.537-1.677-4.537-4.339V5.86zm13.315 0h1.184l6.016 8.482c.395.493.986 1.578.986 1.578s-.099-.986-.099-1.578V5.86h1.184v11.835h-1.184l-6.016-8.482c-.394-.493-.986-1.578-.986-1.578s.099.986.099 1.578v8.482h-1.184V5.86zm18.738-.099c2.761 0 4.241 1.381 4.241 1.381l-.592.888s-1.381-1.183-3.55-1.183c-2.86 0-4.734 2.268-4.734 5.03 0 2.959 1.972 5.128 4.635 5.128 2.367 0 3.748-1.775 3.748-1.775v-1.972h-1.973v-1.085h3.057v5.622h-1.184v-1.381s-1.381 1.578-3.945 1.578c-3.255 0-5.819-2.663-5.819-6.115.1-3.551 2.665-6.116 6.116-6.116zm8.285 9.764s1.184 1.282 3.057 1.282c1.282 0 2.466-.888 2.466-2.17 0-3.057-5.917-2.268-5.917-5.917 0-1.677 1.479-3.156 3.748-3.156 2.17 0 3.156 1.183 3.156 1.183l-.493.986s-1.085-1.085-2.663-1.085c-1.479 0-2.466 1.085-2.466 2.17 0 2.761 5.917 1.972 5.917 5.917 0 1.775-1.381 3.156-3.649 3.156-2.466 0-3.748-1.479-3.748-1.479l.592-.887zm9.172 1.48l6.115-8.876c.493-.592.888-1.183.888-1.183h-6.608V5.86h8.087v.789l-6.115 8.876c-.493.592-.888 1.183-.888 1.183h7.003v1.085h-8.482v-.788zM251.477 5.86h6.706v1.085h-5.523v4.339h4.537v1.085h-4.537v4.339h5.819v1.085h-7.002V5.86zm10.553 0h1.184v11.835h-1.184V5.86zm7.988 1.085h-4.339V5.86h9.764v1.085h-4.241v10.849h-1.184V6.945zm215.692 10.06l6.115-8.876c.493-.592.888-1.183.888-1.183h-6.707V5.86h8.186v.789l-6.115 8.876c-.493.592-.888 1.183-.888 1.183h7.003v1.085h-8.482v-.788zM497.545 5.86h6.706v1.085h-5.523v4.339h4.537v1.085h-4.537v4.339h5.819v1.085h-7.002V5.86zm10.553 0h1.184v11.835h-1.184V5.86zm7.989 1.085h-4.34V5.86h9.764v1.085h-4.241v10.849h-1.183V6.945zm13.511-1.085h6.213v1.085h-5.129v4.438h4.34v1.085h-4.34v5.326H529.5V5.86h.098zm9.468 0h1.184v7.693c0 2.17 1.381 3.255 3.353 3.255 2.17 0 3.353-1.183 3.353-3.353V5.86h1.184v7.693c0 2.663-1.775 4.339-4.537 4.339s-4.537-1.677-4.537-4.339V5.86zM541.828 3h1.085v1.479h-1.085V3zm2.564 0h1.085v1.479h-1.085V3zm7.791 2.86h3.55c1.183 0 1.775.099 2.268.296 1.184.493 1.775 1.578 1.775 3.057 0 1.578-.888 2.86-2.268 3.156 0 0 .099.197.296.493l2.564 4.734h-1.381l-2.761-5.03h-3.057v5.03h-1.184V5.86h.198zm4.044 5.819c1.479 0 2.367-.986 2.367-2.466 0-.986-.395-1.677-1.183-2.17-.296-.197-.888-.296-1.677-.296h-2.466v4.833h2.959v.099zm12.821-5.819h1.184v5.227h1.972l3.156-5.227h1.381l-3.55 5.622 3.748 6.213h-1.381l-3.353-5.622h-1.972v5.622h-1.184V5.86h-.001zm10.947 0h6.706v1.085h-5.523v4.339h4.537v1.085h-4.537v4.339h5.819v1.085h-7.002V5.86zm10.652 0h3.55c1.184 0 1.775.099 2.268.296 1.183.493 1.775 1.578 1.775 3.057 0 1.578-.888 2.86-2.268 3.156 0 0 .099.197.296.493l2.564 4.734h-1.381l-2.761-5.03h-2.959v5.03h-1.183V5.86h.099zm3.846 5.819c1.479 0 2.367-.986 2.367-2.466 0-.986-.395-1.677-1.184-2.17-.296-.197-.888-.296-1.677-.296h-2.466v4.833h2.959v.099zm7.594-5.819h1.184l6.016 8.482c.395.493.986 1.578.986 1.578s-.099-.986-.099-1.578V5.86h1.184v11.835h-1.184l-6.016-8.482c-.395-.493-.986-1.578-.986-1.578s.099.986.099 1.578v8.482h-1.184V5.86zm13.611 0h4.044c2.17 0 3.748 1.381 3.748 3.649s-1.479 3.748-3.748 3.748h-2.959v4.635h-1.184l.099-12.032zm3.747 6.115c1.578 0 2.663-.986 2.663-2.564s-1.085-2.564-2.663-2.564h-2.761v5.128h2.761zm7.003-6.115h3.55c1.184 0 1.775.099 2.268.296 1.183.493 1.775 1.578 1.775 3.057 0 1.578-.888 2.86-2.268 3.156 0 0 .099.197.296.493l2.564 4.734h-1.381l-2.761-5.03h-2.959v5.03h-1.183l.099-11.736zm4.043 5.819c1.479 0 2.367-.986 2.367-2.466 0-.986-.395-1.677-1.184-2.17-.296-.197-.888-.296-1.677-.296h-2.466v4.833h2.959v.099zm12.723-5.918a5.977 5.977 0 0 1 6.016 6.016c0 3.55-2.761 6.213-6.016 6.213-3.353 0-6.016-2.761-6.016-6.213-.099-3.451 2.663-6.016 6.016-6.016zm0 11.145c2.663 0 4.833-2.268 4.833-5.128s-2.17-5.03-4.833-5.03c-2.761 0-4.833 2.17-4.833 5.03 0 2.86 2.071 5.128 4.833 5.128zM652.78 5.86h3.846c3.649 0 5.917 2.17 5.917 5.917s-2.466 5.917-5.917 5.917h-3.846V5.86zm3.65 10.849c2.959 0 4.833-1.775 4.833-4.833 0-3.156-1.973-4.833-4.833-4.833h-2.564v9.862l2.564-.196zm9.566-10.849h1.183v7.693c0 2.17 1.381 3.255 3.353 3.255 2.17 0 3.353-1.183 3.353-3.353V5.86h1.184v7.693c0 2.663-1.775 4.339-4.537 4.339s-4.537-1.677-4.537-4.339l.001-7.693zm13.117 0h1.183v5.227h1.973l3.156-5.227h1.381l-3.55 5.622 3.748 6.213h-1.381l-3.353-5.622h-1.973v5.622h-1.183V5.86h-.001zm13.709 1.085h-4.339V5.86h9.764v1.085h-4.241v10.849h-1.184V6.945z"/><path class="st6" d="M5.803 38.308v-8.581h477.738v8.581m0 0v-8.581h239.953v8.581"/></svg>